<svg id="Ebene_1" data-name="Ebene 1" xmlns="http://www.w3.org/2000/svg" width="110.74462mm" height="54.79815mm" viewBox="0 0 313.92176 155.33333">
  <title>screen--bild-wortmarke--black</title>
  <g>
    <g>
      <polygon points="46.954 21.61 17.155 26.446 17.155 14.527 46.954 9.691 46.954 21.61" fill="#20292d"/>
      <polygon points="46.954 44.473 17.155 49.309 17.155 37.389 46.954 32.553 46.954 44.473" fill="#20292d"/>
      <polygon points="46.954 67.335 17.155 72.171 17.155 60.252 46.954 55.416 46.954 67.335" fill="#20292d"/>
      <polygon points="76.753 85.362 17.155 95.034 17.155 83.114 76.753 73.443 76.753 85.362" fill="#20292d"/>
      <polygon points="76.753 108.225 17.155 117.896 17.155 105.977 76.753 96.305 76.753 108.225" fill="#20292d"/>
      <polygon points="76.753 131.087 17.155 140.759 17.155 128.839 76.753 119.168 76.753 131.087" fill="#20292d"/>
    </g>
    <g>
      <path d="M108.27072,84.90234h5.13558V99.60127h.28239a8.86053,8.86053,0,0,1,2.874-3.46264,7.64176,7.64176,0,0,1,4.47606-1.24874A8.27362,8.27362,0,0,1,127.8699,98.094q2.54425,3.20439,2.54395,9.51628,0,6.31434-2.54395,9.5169a8.272,8.272,0,0,1-6.83114,3.20408,7.64169,7.64169,0,0,1-4.47606-1.24875,8.85179,8.85179,0,0,1-2.874-3.46263h-.28239v4.146h-5.13558Zm10.64768,31.23583a5.68089,5.68089,0,0,0,4.49928-1.7903,6.93594,6.93594,0,0,0,1.5782-4.75845v-3.95773a6.937,6.937,0,0,0-1.5782-4.75845,5.68292,5.68292,0,0,0-4.49928-1.7903,7.67589,7.67589,0,0,0-2.12037.283,5.29568,5.29568,0,0,0-1.74263.84778,4.26118,4.26118,0,0,0-1.20168,1.38995,4.03467,4.03467,0,0,0-.44742,1.95533v8.10311a4.033,4.033,0,0,0,.44742,1.95534,4.24877,4.24877,0,0,0,1.20168,1.38994,5.29568,5.29568,0,0,0,1.74263.84778A7.67589,7.67589,0,0,0,118.9184,116.13817Z" fill="#20292d"/>
      <path d="M137.10318,115.57278h8.292V99.64833h-8.292v-4.193h13.427v20.1175h7.77366v4.19306H137.10318Zm10.883-24.54589a3.773,3.773,0,0,1-2.756-.80132,2.72913,2.72913,0,0,1-.77749-1.97856v-.989a2.73353,2.73353,0,0,1,.77749-1.97917,3.69841,3.69841,0,0,1,2.709-.80072,3.7786,3.7786,0,0,1,2.756.80072,2.73357,2.73357,0,0,1,.77749,1.97917v.989a2.72917,2.72917,0,0,1-.77749,1.97856A3.69493,3.69493,0,0,1,147.98619,91.02689Z" fill="#20292d"/>
      <path d="M175.73555,119.76584a5.95446,5.95446,0,0,1-4.71139-1.71512,6.48118,6.48118,0,0,1-1.5073-4.44183V99.64833h-7.49127v-4.193h5.32384a2.75647,2.75647,0,0,0,1.9315-.54156,2.6657,2.6657,0,0,0,.56539-1.95533V86.8809h4.80551v8.57438h10.36468v4.193H174.65183v15.92445h10.36468v4.19306Z" fill="#20292d"/>
      <path d="M202.1188,120.33123a16.61872,16.61872,0,0,1-6.80791-1.272,12.316,12.316,0,0,1-4.59342-3.39234l3.15641-2.82695a10.55116,10.55116,0,0,0,8.339,3.5806,8.29387,8.29387,0,0,0,4.028-.84778,2.814,2.814,0,0,0,1.53114-2.63869,2.63146,2.63146,0,0,0-.28239-1.272,2.30783,2.30783,0,0,0-.80132-.84778,4.44119,4.44119,0,0,0-1.20108-.51832,10.30907,10.30907,0,0,0-1.437-.283l-3.86361-.61246a19.41929,19.41929,0,0,1-2.8734-.61245,9.24785,9.24785,0,0,1-2.61486-1.20107,6.20338,6.20338,0,0,1-1.88443-2.0024,5.98542,5.98542,0,0,1-.73042-3.10935,6.39823,6.39823,0,0,1,2.85018-5.6539,13.17143,13.17143,0,0,1,7.5145-1.93149,15.43846,15.43846,0,0,1,5.86539,1.01281,11.373,11.373,0,0,1,4.12276,2.80372l-2.874,3.01521a9.20976,9.20976,0,0,0-2.68514-2.00239,9.92818,9.92818,0,0,0-4.61725-.91869q-5.13619,0-5.13558,3.25054a2.20846,2.20846,0,0,0,1.10755,2.14359,7.48756,7.48756,0,0,0,2.61485.77749l3.863.61246q1.45962.23654,2.89724.61245a8.44814,8.44814,0,0,1,2.59163,1.15462,6.23367,6.23367,0,0,1,1.88443,2.00179,6.00271,6.00271,0,0,1,.72981,3.11,6.77047,6.77047,0,0,1-2.85018,5.77126Q207.11227,120.33153,202.1188,120.33123Z" fill="#20292d"/>
      <path d="M220.49185,115.57278h8.292V99.64833h-8.292v-4.193h13.427v20.1175h7.77366v4.19306H220.49185Zm10.883-24.54589a3.773,3.773,0,0,1-2.75605-.80132,2.72917,2.72917,0,0,1-.77749-1.97856v-.989a2.73357,2.73357,0,0,1,.77749-1.97917,3.69844,3.69844,0,0,1,2.709-.80072,3.77857,3.77857,0,0,1,2.75605.80072,2.73353,2.73353,0,0,1,.77749,1.97917v.989a2.72913,2.72913,0,0,1-.77749,1.97856A3.6949,3.6949,0,0,1,231.37485,91.02689Z" fill="#20292d"/>
      <path d="M262.94014,115.61985h-.28239a8.86213,8.86213,0,0,1-2.874,3.46263,7.641,7.641,0,0,1-4.47545,1.24875,8.27154,8.27154,0,0,1-6.83175-3.20408q-2.54425-3.20256-2.54395-9.5169,0-6.31251,2.54395-9.51628a8.27321,8.27321,0,0,1,6.83175-3.20408,7.6411,7.6411,0,0,1,4.47545,1.24874,8.87089,8.87089,0,0,1,2.874,3.46264h.28239V84.90234h5.13558v34.8635h-5.13558Zm-5.5121.51832a7.67274,7.67274,0,0,0,2.12037-.283,5.31047,5.31047,0,0,0,1.74323-.84778,4.26847,4.26847,0,0,0,1.20107-1.38994,4.03982,4.03982,0,0,0,.44743-1.95534V103.559a4.04145,4.04145,0,0,0-.44743-1.95533,4.281,4.281,0,0,0-1.20107-1.38995,5.31047,5.31047,0,0,0-1.74323-.84778,7.67274,7.67274,0,0,0-2.12037-.283,5.68037,5.68037,0,0,0-4.49929,1.7903,6.934,6.934,0,0,0-1.5782,4.75845v3.95773a6.933,6.933,0,0,0,1.5782,4.75845A5.67834,5.67834,0,0,0,257.428,116.13817Z" fill="#20292d"/>
      <path d="M285.97811,120.33123a13.22643,13.22643,0,0,1-4.99377-.89546,10.05687,10.05687,0,0,1-3.72179-2.544,11.20049,11.20049,0,0,1-2.30863-3.981,16.10658,16.10658,0,0,1-.80072-5.25293,15.891,15.891,0,0,1,.82456-5.27678,11.9158,11.9158,0,0,1,2.308-4.028,9.899,9.899,0,0,1,3.60444-2.56779,11.9984,11.9984,0,0,1,4.71139-.89545,11.81111,11.81111,0,0,1,4.61725.87161,9.93748,9.93748,0,0,1,3.53292,2.47366,10.99239,10.99239,0,0,1,2.23834,3.81593,14.72551,14.72551,0,0,1,.77688,4.89964v1.93211H279.33524v.79582a6.32293,6.32293,0,0,0,1.7903,4.657,6.65965,6.65965,0,0,0,4.94732,1.80252,7.66722,7.66722,0,0,0,4.028-1.0067,7.96276,7.96276,0,0,0,2.709-2.69126l3.20348,2.8349a9.94691,9.94691,0,0,1-3.74564,3.591A12.35784,12.35784,0,0,1,285.97811,120.33123Zm-.37651-21.53068a6.61654,6.61654,0,0,0-2.52073.47126,5.59116,5.59116,0,0,0-1.97856,1.34227,6.41164,6.41164,0,0,0-1.29581,2.04946,6.91674,6.91674,0,0,0-.47126,2.59163v.32946h12.20265v-.47126A6.4156,6.4156,0,0,0,289.912,100.52,5.65344,5.65344,0,0,0,285.6016,98.80055Z" fill="#20292d"/>
    </g>
  </g>
</svg>
