<svg id="Ebene_1" data-name="Ebene 1" xmlns="http://www.w3.org/2000/svg" width="46.76281mm" height="18.61191mm" viewBox="0 0 132.556 52.75817">
  <g>
    <path d="M5.24392,12.58825V7.72936H6.79169V12.081c0,.87534.20305,1.75067,1.37021,1.75067a1.75517,1.75517,0,0,0,1.82677-1.89045V7.72936h1.50972v7.15517H10.02672v-1.167a2.68234,2.68234,0,0,1-2.38506,1.35725A2.31507,2.31507,0,0,1,5.24392,12.58825Z" fill="#1e1e1c"/>
    <path d="M19.55369,10.00028v4.88425H18.01861V10.54589c0-.74852-.241-1.789-1.45885-1.789a1.73723,1.73723,0,0,0-1.73813,1.94119v4.18646H13.29937V7.72936H14.809V8.922h.038a2.437,2.437,0,0,1,2.29628-1.40826A2.318,2.318,0,0,1,19.55369,10.00028Z" fill="#1e1e1c"/>
    <path d="M26.17537,8.70616h.05073V4.82435h1.53508V14.88453h-1.459v-.97679h-.05073a2.35885,2.35885,0,0,1-2.144,1.21775c-1.89032,0-3.197-1.53509-3.197-3.80572,0-2.2836,1.332-3.806,3.17162-3.806A2.32612,2.32612,0,0,1,26.17537,8.70616Zm-3.641,2.61361c0,1.71263.65974,2.63869,1.87763,2.63869,1.20521,0,1.90286-.9007,1.90286-2.63869,0-1.68727-.67228-2.60093-1.91554-2.60093C23.19412,8.71884,22.53438,9.59418,22.53438,11.31977Z" fill="#1e1e1c"/>
    <path d="M37.10991,4.96385c2.14409,0,3.46344,1.19238,3.46344,3.10821,0,1.91554-1.294,3.09524-3.39989,3.09524H35.169v3.71723H33.57051V4.96385ZM35.15632,6.245V9.88614H37.0465a1.67279,1.67279,0,0,0,1.85227-1.81408,1.70933,1.70933,0,0,0-1.903-1.82705Z" fill="#1e1e1c"/>
    <path d="M45.05107,7.52645c2.22005,0,3.59027,1.44631,3.59027,3.79332,0,2.37237-1.33217,3.83108-3.59027,3.83108-2.24555,0-3.55222-1.45871-3.55222-3.83108C41.49885,8.97276,42.8182,7.52645,45.05107,7.52645Zm0,6.432c1.23058,0,1.99178-.92606,1.99178-2.63869,0-1.6619-.73584-2.60093-1.99178-2.60093-1.23057,0-1.95373.939-1.95373,2.60093C43.09734,13.0324,43.8205,13.95846,45.05107,13.95846Z" fill="#1e1e1c"/>
    <path d="M56.30336,9.9876v4.89693H54.76828v-4.326c0-.7612-.21574-1.80169-1.43363-1.80169a1.75614,1.75614,0,0,0-1.76335,1.94119v4.18646H50.0489V4.91312h1.50971V8.922h.038a2.40076,2.40076,0,0,1,2.29628-1.39558A2.29766,2.29766,0,0,1,56.30336,9.9876Z" fill="#1e1e1c"/>
    <path d="M59.55037,14.88453H58.028V4.82435h1.5224Z" fill="#1e1e1c"/>
    <path d="M67.63146,11.751H62.4427c.08878,1.37021.7612,2.16946,1.94105,2.16946a1.84244,1.84244,0,0,0,1.85213-1.35754l1.3829.22828a3.08443,3.08443,0,0,1-3.24771,2.32164c-2.20751,0-3.45077-1.42066-3.45077-3.755,0-2.41041,1.35739-3.83136,3.51418-3.83136,2.05518,0,3.235,1.29413,3.235,3.64085A3.238,3.238,0,0,1,67.63146,11.751Zm-5.17608-1.15435h3.81854a1.83253,1.83253,0,0,0-1.87749-1.87777A1.885,1.885,0,0,0,62.45538,10.59661Z" fill="#1e1e1c"/>
    <path d="M75.3187,10.00028v4.88425H73.78376V10.54589c0-.74852-.24109-1.789-1.459-1.789a1.73712,1.73712,0,0,0-1.738,1.94119v4.18646h-1.5224V7.72936H70.5741V8.922h.038a2.43671,2.43671,0,0,1,2.29629-1.40826A2.318,2.318,0,0,1,75.3187,10.00028Z" fill="#1e1e1c"/>
    <path d="M12.83042,27.7991c0,1.62385-1.1418,2.72746-3.032,2.72746H5.68807V20.60588H9.64612c1.77618,0,2.8037.9768,2.8037,2.53724a2.151,2.151,0,0,1-1.44617,2.24556v.05072A2.30816,2.30816,0,0,1,12.83042,27.7991ZM9.54466,24.96989a1.59911,1.59911,0,0,0,1.68727-1.738,1.5494,1.5494,0,0,0-1.68727-1.64922H6.8551v3.38721Zm2.0425,2.7658a1.69153,1.69153,0,0,0-1.87763-1.789H6.8551v3.60309H9.70953A1.72268,1.72268,0,0,0,11.58716,27.73569Z" fill="#1e1e1c"/>
    <path d="M19.731,28.26833l1.053.17755a3.0257,3.0257,0,0,1-3.17162,2.309c-2.10591,0-3.3238-1.3953-3.3238-3.755,0-2.39774,1.2813-3.844,3.33649-3.844,1.97909,0,3.197,1.33217,3.197,3.514a2.16779,2.16779,0,0,1-.05073.58365H15.43036c.07609,1.6619.81193,2.5626,2.19469,2.5626A2.02937,2.02937,0,0,0,19.731,28.26833ZM15.443,26.32742h4.31328a2.1584,2.1584,0,1,0-4.31328,0Z" fill="#1e1e1c"/>
    <path d="M26.25118,23.32067v.96411a3.97376,3.97376,0,0,0-.55815-.06341c-1.54776,0-2.09323,1.25608-2.09323,2.54992v3.75527H22.50873V23.3714h1.053v1.40826a1.96085,1.96085,0,0,1,2.10591-1.50972A4.13856,4.13856,0,0,1,26.25118,23.32067Z" fill="#1e1e1c"/>
    <path d="M32.91133,30.52656H31.9599a9.61388,9.61388,0,0,1-.08892-1.25607h-.05072a2.50874,2.50874,0,0,1-2.4992,1.497,2.11314,2.11314,0,0,1-2.33432-2.14381c0-1.76364,1.64921-2.05533,2.84174-2.2836l1.07839-.20292c.43133-.07637.85-.19051.85-.79924,0-.78657-.67243-1.25608-1.64922-1.25608A1.77307,1.77307,0,0,0,28.21731,25.617l-1.0402-.279a2.76808,2.76808,0,0,1,2.93052-2.18215c1.68726,0,2.70224.91339,2.70224,2.42311v3.37453A12.95565,12.95565,0,0,0,32.91133,30.52656ZM31.73148,27.355v-.54561s-.15218.05073-1.48435.34269c-1.129.241-2.11859.45655-2.11859,1.48436a1.20774,1.20774,0,0,0,1.332,1.23043A2.24832,2.24832,0,0,0,31.73148,27.355Z" fill="#1e1e1c"/>
    <path d="M33.93829,23.3714h1.25593v-2.055h1.07839v2.055h1.738v.91338H36.2853v4.44038c0,.74852.24109.91338.86265.91338h.97694v.888H36.79272a1.38969,1.38969,0,0,1-1.58581-1.50971l-.01269-4.73207H33.93829Z" fill="#1e1e1c"/>
    <path d="M39.444,28.23028V23.3714h1.10361v4.49111c0,1.129.45684,1.95358,1.62386,1.95358a2.10577,2.10577,0,0,0,2.18214-2.11845V23.3714h1.10376v7.15516H44.36625V29.41027a2.812,2.812,0,0,1-2.48652,1.34457A2.309,2.309,0,0,1,39.444,28.23028Z" fill="#1e1e1c"/>
    <path d="M53.46175,25.655v4.87156H52.37068V26.04814c0-1.09093-.50742-1.94091-1.7-1.94091a2.08631,2.08631,0,0,0-2.09322,2.20751v4.21182H47.47375V23.3714h1.06557v1.20535h.03819a2.58291,2.58291,0,0,1,2.44846-1.421A2.28309,2.28309,0,0,1,53.46175,25.655Z" fill="#1e1e1c"/>
    <path d="M61.71969,23.3714v7.4088c0,1.66191-1.17985,2.68971-3.10821,2.68971s-2.90516-1.04049-3.09539-2.08069l1.09093-.241a1.84,1.84,0,0,0,2.00446,1.408c1.31949,0,2.02982-.6341,2.02982-1.776V29.27049h-.038a2.45455,2.45455,0,0,1-2.27077,1.24339c-1.92837,0-3.1209-1.39558-3.13358-3.6665,0-2.28331,1.21789-3.67889,3.12089-3.67889A2.47248,2.47248,0,0,1,60.59057,24.488h.02536l.01269-1.11657Zm-1.02766,3.476c0-1.75067-.82461-2.75283-2.19469-2.75283-1.35739,0-2.13127,1.00216-2.13127,2.75283,0,1.73828.79924,2.7658,2.16932,2.7658S60.692,28.63639,60.692,26.84738Z" fill="#1e1e1c"/>
    <path d="M65.563,30.52656l-.01268.58366A1.47978,1.47978,0,0,1,63.93917,32.696v-.69779c.50742,0,.85-.39343.86266-1.02752v-.44416H63.9899l-.02536-1.48435H65.563Z" fill="#1e1e1c"/>
    <path d="M72.2987,27.723a2.42367,2.42367,0,0,0,2.63884,1.95359c1.48435,0,2.41042-.64706,2.41042-1.76336,0-1.00215-.48206-1.42094-1.459-1.6619l-2.01714-.48219a2.52991,2.52991,0,0,1-2.24541-2.626c0-1.71263,1.39544-2.66406,3.38721-2.66406a3.03337,3.03337,0,0,1,3.34917,2.66406l-1.05289.19023a1.99764,1.99764,0,0,0-2.24555-1.83945c-1.43348,0-2.22005.59634-2.22005,1.63654,0,.85.35524,1.35753,1.47153,1.62386l2.00446.49487a2.52466,2.52466,0,0,1,2.25823,2.66406c0,1.738-1.34471,2.7782-3.61563,2.7782a3.4779,3.4779,0,0,1-3.76781-2.74015Z" fill="#1e1e1c"/>
    <path d="M79.55462,23.3714h1.25594v-2.055h1.07839v2.055h1.738v.91338H81.90163v4.44038c0,.74852.241.91338.86266.91338h.97679v.888H82.409a1.38969,1.38969,0,0,1-1.58581-1.50971l-.01268-4.73207H79.55462Z" fill="#1e1e1c"/>
    <path d="M88.87883,23.32067v.96411a3.97407,3.97407,0,0,0-.55829-.06341c-1.54762,0-2.09323,1.25608-2.09323,2.54992v3.75527H85.13638V23.3714h1.05289v1.40826a1.961,1.961,0,0,1,2.10591-1.50972A4.13912,4.13912,0,0,1,88.87883,23.32067Z" fill="#1e1e1c"/>
    <path d="M95.53884,30.52656h-.95143a9.61388,9.61388,0,0,1-.08892-1.25607h-.05073a2.50872,2.50872,0,0,1-2.49919,1.497,2.11315,2.11315,0,0,1-2.33433-2.14381c0-1.76364,1.64922-2.05533,2.84175-2.2836l1.07839-.20292c.43133-.07637.85-.19051.85-.79924,0-.78657-.67242-1.25608-1.64922-1.25608A1.77306,1.77306,0,0,0,90.84482,25.617l-1.04021-.279a2.76809,2.76809,0,0,1,2.93052-2.18215c1.68727,0,2.70225.91339,2.70225,2.42311v3.37453A12.95565,12.95565,0,0,0,95.53884,30.52656ZM94.359,27.355v-.54561s-.15218.05073-1.48435.34269c-1.129.241-2.1186.45655-2.1186,1.48436a1.20774,1.20774,0,0,0,1.332,1.23043A2.24832,2.24832,0,0,0,94.359,27.355Z" fill="#1e1e1c"/>
    <path d="M96.56579,23.3714h1.25594v-2.055h1.07839v2.055h1.738v.91338H98.9128v4.44038c0,.74852.2411.91338.86266.91338h.97693v.888H99.42022a1.38969,1.38969,0,0,1-1.58581-1.50971l-.01268-4.73207H96.56579Z" fill="#1e1e1c"/>
    <path d="M107.01912,28.26833l1.05288.17755a3.02555,3.02555,0,0,1-3.17148,2.309c-2.106,0-3.32394-1.3953-3.32394-3.755,0-2.39774,1.28144-3.844,3.33663-3.844,1.97895,0,3.19684,1.33217,3.19684,3.514a2.16779,2.16779,0,0,1-.05073.58365h-5.34094c.07609,1.6619.81193,2.5626,2.19483,2.5626A2.02948,2.02948,0,0,0,107.01912,28.26833Zm-4.28806-1.94091h4.31342a2.15847,2.15847,0,1,0-4.31342,0Z" fill="#1e1e1c"/>
    <path d="M116.01317,23.3714v7.4088c0,1.66191-1.17985,2.68971-3.10821,2.68971s-2.90516-1.04049-3.09553-2.08069l1.09107-.241a1.83993,1.83993,0,0,0,2.00446,1.408c1.31935,0,2.02982-.6341,2.02982-1.776V29.27049h-.038a2.45461,2.45461,0,0,1-2.27091,1.24339c-1.92837,0-3.1209-1.39558-3.13358-3.6665,0-2.28331,1.21789-3.67889,3.12089-3.67889a2.47254,2.47254,0,0,1,2.27092,1.31948h.02537l.01268-1.11657Zm-1.02766,3.476c0-1.75067-.82461-2.75283-2.19469-2.75283-1.35753,0-2.13141,1.00216-2.13141,2.75283,0,1.73828.79924,2.7658,2.16946,2.7658S114.98551,28.63639,114.98551,26.84738Z" fill="#1e1e1c"/>
    <path d="M119.26018,20.56784l.02536,1.3953h-1.294v-1.3953Zm-.06341,2.80356v7.15516H118.093V23.3714Z" fill="#1e1e1c"/>
    <path d="M126.23737,28.26833l1.053.17755a3.02571,3.02571,0,0,1-3.17162,2.309c-2.10591,0-3.3238-1.3953-3.3238-3.755,0-2.39774,1.2813-3.844,3.33648-3.844,1.97909,0,3.197,1.33217,3.197,3.514a2.16831,2.16831,0,0,1-.05072.58365h-5.34094c.07609,1.6619.81192,2.5626,2.19468,2.5626A2.02937,2.02937,0,0,0,126.23737,28.26833Zm-4.28791-1.94091h4.31328a2.1584,2.1584,0,1,0-4.31328,0Z" fill="#1e1e1c"/>
    <path d="M5.37088,43.87232V39.01343H6.4745v4.49111c0,1.129.45683,1.95359,1.62385,1.95359a2.10578,2.10578,0,0,0,2.18215-2.11845V39.01343h1.10375V46.1686H10.29318V45.0523a2.812,2.812,0,0,1-2.48651,1.34458A2.309,2.309,0,0,1,5.37088,43.87232Z" fill="#1e1e1c"/>
    <path d="M19.38869,41.297V46.1686H18.29761V41.69017c0-1.09093-.50742-1.9409-1.69994-1.9409a2.08639,2.08639,0,0,0-2.09323,2.20751V46.1686H13.40068V39.01343h1.06571v1.20535h.03805a2.58327,2.58327,0,0,1,2.44846-1.42094A2.283,2.283,0,0,1,19.38869,41.297Z" fill="#1e1e1c"/>
    <path d="M26.5175,40.13h.02537V36.10842h1.10375V46.1686H26.619V45.02694h-.03805a2.55477,2.55477,0,0,1-2.30882,1.38262c-1.865,0-3.14626-1.54777-3.14626-3.80572,0-2.24555,1.28131-3.79332,3.13358-3.79332A2.435,2.435,0,0,1,26.5175,40.13Zm-4.21182,2.47383c0,1.82677.77388,2.89233,2.15664,2.89233,1.35753,0,2.16946-1.01484,2.16946-2.89233,0-1.789-.78656-2.86725-2.19483-2.86725C23.09224,39.73659,22.30568,40.73874,22.30568,42.60384Z" fill="#1e1e1c"/>
    <path d="M37.22376,41.17021H41.626V46.1686h-.86279l-.01268-1.82677a3.304,3.304,0,0,1-3.18416,2.05505c-2.72761,0-4.4022-1.96627-4.4022-5.16326,0-3.1843,1.68727-5.15057,4.47829-5.15057a3.90911,3.90911,0,0,1,4.085,3.41258l-1.09107.20291a2.92858,2.92858,0,0,0-2.9432-2.588c-2.02982,0-3.29844,1.57313-3.29844,4.123.01268,2.56261,1.23057,4.123,3.197,4.123a2.86091,2.86091,0,0,0,2.98125-3.197H37.22376Z" fill="#1e1e1c"/>
    <path d="M48.85637,43.91036l1.05288.17755a3.02555,3.02555,0,0,1-3.17148,2.309c-2.106,0-3.32394-1.3953-3.32394-3.755,0-2.39774,1.28144-3.844,3.33663-3.844,1.979,0,3.19684,1.33217,3.19684,3.514a2.16774,2.16774,0,0,1-.05073.58365H44.55563c.07609,1.66191.81193,2.56261,2.19483,2.56261A2.02947,2.02947,0,0,0,48.85637,43.91036Zm-4.28806-1.9409h4.31342a2.15847,2.15847,0,1,0-4.31342,0Z" fill="#1e1e1c"/>
    <path d="M52.05279,44.07523a1.63518,1.63518,0,0,0,1.75067,1.42094c1.16717,0,1.81409-.49459,1.81409-1.28116,0-.609-.36792-.92634-1.07825-1.09121l-1.43363-.35509A2.021,2.021,0,0,1,51.317,40.8402c0-1.24311,1.02752-2.02968,2.68942-2.02968a2.43523,2.43523,0,0,1,2.63884,2.017l-.98962.27928A1.60677,1.60677,0,0,0,53.943,39.73659c-.96411,0-1.50971.38074-1.50971,1.07825,0,.571.41878.87533,1.00229,1.01512l1.5224.39314a1.96522,1.96522,0,0,1,1.776,1.97923c0,1.36994-1.15448,2.20723-2.9432,2.20723a2.53016,2.53016,0,0,1-2.753-2.06773Z" fill="#1e1e1c"/>
    <path d="M57.63412,39.01343h1.25594v-2.055h1.07839v2.055h1.738v.91339H59.98113V44.3672c0,.74851.2411.91338.86266.91338h.97693v.888H60.48855a1.3897,1.3897,0,0,1-1.58581-1.50972l-.01268-4.73206H57.63412Z" fill="#1e1e1c"/>
    <path d="M68.78509,46.1686h-.95142a9.61394,9.61394,0,0,1-.08892-1.25608H67.694a2.50871,2.50871,0,0,1-2.49919,1.497,2.11315,2.11315,0,0,1-2.33433-2.14382c0-1.76364,1.64922-2.05532,2.84175-2.2836l1.07839-.20291c.43133-.07637.85-.19051.85-.79925,0-.78656-.67242-1.25607-1.64922-1.25607A1.77306,1.77306,0,0,0,64.09108,41.259l-1.04021-.279a2.76809,2.76809,0,0,1,2.93052-2.18214c1.68727,0,2.70225.91338,2.70225,2.4231v3.37453A12.95718,12.95718,0,0,0,68.78509,46.1686ZM67.60525,42.997v-.54561s-.15218.05073-1.48435.3427c-1.129.241-2.1186.45655-2.1186,1.48435a1.20775,1.20775,0,0,0,1.332,1.23044A2.24833,2.24833,0,0,0,67.60525,42.997Z" fill="#1e1e1c"/>
    <path d="M71.77846,46.1686H70.67471V36.10842h1.10375Z" fill="#1e1e1c"/>
    <path d="M72.99607,39.01343H74.252v-2.055H75.3304v2.055h1.738v.91339H75.34308V44.3672c0,.74851.241.91338.86266.91338h.97679v.888h-1.332a1.3897,1.3897,0,0,1-1.58581-1.50972L74.252,39.92682H72.99607Z" fill="#1e1e1c"/>
    <path d="M78.5016,43.87232V39.01343h1.10361v4.49111c0,1.129.45683,1.95359,1.62386,1.95359a2.10577,2.10577,0,0,0,2.18214-2.11845V39.01343H84.515V46.1686H83.42389V45.0523a2.812,2.812,0,0,1-2.48651,1.34458A2.309,2.309,0,0,1,78.5016,43.87232Z" fill="#1e1e1c"/>
    <path d="M92.5194,41.297V46.1686H91.42833V41.69017c0-1.09093-.50742-1.9409-1.7-1.9409a2.08639,2.08639,0,0,0-2.09323,2.20751V46.1686H86.5314V39.01343h1.0657v1.20535h.038a2.58327,2.58327,0,0,1,2.44847-1.42094A2.283,2.283,0,0,1,92.5194,41.297Z" fill="#1e1e1c"/>
    <path d="M100.77747,39.01343v7.40881c0,1.6619-1.17984,2.6897-3.10821,2.6897s-2.90515-1.04048-3.09552-2.08068l1.09107-.241a1.83992,1.83992,0,0,0,2.00445,1.408c1.31935,0,2.02982-.6341,2.02982-1.776V44.91252h-.038a2.45463,2.45463,0,0,1-2.27092,1.2434c-1.92836,0-3.12089-1.39558-3.13357-3.6665,0-2.28332,1.21789-3.6789,3.12089-3.6789A2.47256,2.47256,0,0,1,99.64836,40.13h.02536l.01268-1.11658Zm-1.02766,3.476c0-1.75068-.82461-2.75283-2.19468-2.75283-1.35754,0-2.13142,1.00215-2.13142,2.75283,0,1.73828.79925,2.7658,2.16946,2.7658S99.74981,44.27842,99.74981,42.48942Z" fill="#1e1e1c"/>
  </g>
</svg>
