<svg id="Ebene_2" data-name="Ebene 2" xmlns="http://www.w3.org/2000/svg" width="173.90583mm" height="45.64184mm" viewBox="0 0 492.96142 129.37844">
  <g>
    <g>
      <polygon points="18.593 57.652 31.272 20.867 19.119 20.867 19.119 18.933 35.112 18.933 22.487 55.623 35.218 55.623 35.218 57.652 18.593 57.652"/>
      <path d="M55.23321,57.55828a14.62631,14.62631,0,0,1-4.07774.554,9.61535,9.61535,0,0,1-3.99632-.76132,7.64971,7.64971,0,0,1-2.7368-2.00461,8.21748,8.21748,0,0,1-1.55356-2.78742,10.0778,10.0778,0,0,1-.49848-3.11129,9.08768,9.08768,0,0,1,1.07893-4.566,9.66478,9.66478,0,0,1,2.89242-3.15456,14.56255,14.56255,0,0,1,4.18259-1.983,26.864,26.864,0,0,1,4.89246-.99142V36.7711a5.85186,5.85186,0,0,0-1.3139-4.26524A5.44939,5.44939,0,0,0,50.103,31.192a10.651,10.651,0,0,0-3.4701.50791,12.45131,12.45131,0,0,0-2.31488,1.01583l-.7903-1.8a11.50737,11.50737,0,0,1,2.70961-1.24343,12.33169,12.33169,0,0,1,3.97135-.6q8.05062,0,8.049,7.60678V56.2688a10.9093,10.9093,0,0,1-3.02446,1.28948m.1835-16.9161a21.86576,21.86576,0,0,0-3.99716.87492,11.16611,11.16611,0,0,0-3.21073,1.61459,6.99189,6.99189,0,0,0-2.12861,2.55594,8.41957,8.41957,0,0,0-.76381,3.76,8.80039,8.80039,0,0,0,.36977,2.55733,5.774,5.774,0,0,0,1.13026,2.11973,5.44893,5.44893,0,0,0,1.8942,1.42887,6.17527,6.17527,0,0,0,2.65552.5283,11.12607,11.12607,0,0,0,2.33985-.2276,5.95106,5.95106,0,0,0,1.71071-.59863Z"/>
      <path d="M81.82559,57.65162V36.44739A5.85907,5.85907,0,0,0,80.589,32.2985q-1.23726-1.2901-4.1285-1.28934a8.12409,8.12409,0,0,0-2.78951.46048,10.6894,10.6894,0,0,0-2.05066.96713V57.65162H68.67364V18.93254h2.94665V30.50111a11.18087,11.18087,0,0,1,2.26065-.967,9.44546,9.44546,0,0,1,2.94735-.46186,8.61918,8.61918,0,0,1,5.86556,1.8218q2.07631,1.82229,2.07839,5.55335V57.65162Z"/>
      <path d="M108.33809,57.65162V36.44739a5.80238,5.80238,0,0,0-1.28934-3.96192q-1.28823-1.47693-4.33988-1.47631a12.481,12.481,0,0,0-2.60392.23163,11.33132,11.33132,0,0,0-1.97216.59862V57.65162H95.18614V30.91568a12.13975,12.13975,0,0,1,3.23515-1.31113,17.314,17.314,0,0,1,4.49827-.53231q4.2088,0,6.28678,2.02763a7.14206,7.14206,0,0,1,2.07854,5.34752V57.65162Z"/>
      <path d="M133.19411,57.56091a14.71392,14.71392,0,0,1-4.0769.55133,9.66306,9.66306,0,0,1-3.99715-.75854,7.59905,7.59905,0,0,1-2.73528-2.01,8.11523,8.11523,0,0,1-1.55287-2.78618,10.0401,10.0401,0,0,1-.49848-3.11128,9.05817,9.05817,0,0,1,1.0788-4.5618,9.66428,9.66428,0,0,1,2.89048-3.1601,14.68234,14.68234,0,0,1,4.18259-1.9802,27.33059,27.33059,0,0,1,4.89245-.99142v-1.983a5.84135,5.84135,0,0,0-1.31389-4.26123,5.43644,5.43644,0,0,0-3.997-1.31652,10.66861,10.66861,0,0,0-3.47288.50791,12.447,12.447,0,0,0-2.31487,1.01583l-.78823-1.7974a11.43945,11.43945,0,0,1,2.70962-1.24745,12.35707,12.35707,0,0,1,3.96927-.59862q8.05062,0,8.04895,7.60539V56.26741a10.98362,10.98362,0,0,1-3.0246,1.2935m.18364-16.91873a21.93878,21.93878,0,0,0-3.99715.87631,11.2202,11.2202,0,0,0-3.20741,1.61043,7.0213,7.0213,0,0,0-2.13193,2.56273,8.38553,8.38553,0,0,0-.76395,3.75457,8.78741,8.78741,0,0,0,.36977,2.55871,5.82639,5.82639,0,0,0,1.13039,2.12236,5.52628,5.52628,0,0,0,1.89421,1.42624,6.21507,6.21507,0,0,0,2.65607.52969,10.9689,10.9689,0,0,0,2.34193-.23163,5.763,5.763,0,0,0,1.70807-.596ZM127.33063,24.555a1.43411,1.43411,0,0,1-.52691,1.10807,1.96511,1.96511,0,0,1-2.52473,0,1.42547,1.42547,0,0,1,0-2.21321,1.95158,1.95158,0,0,1,2.52473,0,1.43021,1.43021,0,0,1,.52691,1.10514m7.153,0a1.42648,1.42648,0,0,1-.52552,1.10807,1.967,1.967,0,0,1-2.52612,0,1.42785,1.42785,0,0,1,0-2.21321,1.95347,1.95347,0,0,1,2.52612,0,1.42258,1.42258,0,0,1,.52552,1.10514"/>
      <path d="M155.68394,31.792a9.3871,9.3871,0,0,0-6.10329.0907V57.65162h-2.94526V30.91568a11.66954,11.66954,0,0,1,3.26011-1.28948,16.71829,16.71829,0,0,1,4.26124-.554c.42122,0,.84993.008,1.28947.02441a8.61656,8.61656,0,0,1,1.18448.11512Z"/>
      <polygon points="162.311 57.652 173.674 31.285 163.048 31.285 163.048 29.534 177.568 29.534 166.361 55.715 177.673 55.715 177.673 57.652 162.311 57.652"/>
      <path d="M193.34988,57.7899a5.59112,5.59112,0,0,1-3.94556-1.406,5.78075,5.78075,0,0,1-1.52374-4.44945v-20.649h-3.263V29.5341h3.263V22.71291l2.94318-1.154V29.5341h4.52532v1.75135h-4.52532v20.6977a3.93128,3.93128,0,0,0,.894,2.92571,3.14918,3.14918,0,0,0,2.26329.852,4.66276,4.66276,0,0,0,.65826-.04605,6.43338,6.43338,0,0,0,.70972-.13689v1.93429a5.8209,5.8209,0,0,1-1.9992.27767"/>
      <path d="M221.072,42.07384c0,.2452-.008.49709-.02441.75715-.01887.26145-.027.5161-.027.76118l-14.83285,1.61458a16.38366,16.38366,0,0,0,.4971,4.09993,11.78686,11.78686,0,0,0,1.41805,3.39035,7.4542,7.4542,0,0,0,2.22959,2.30392,5.36632,5.36632,0,0,0,2.992.85064,12.63244,12.63244,0,0,0,3.72752-.45923,9.22454,9.22454,0,0,0,2.36217-1.0591l.8953,1.93415a10.27659,10.27659,0,0,1-2.68048,1.24482,13.61768,13.61768,0,0,1-4.3059.6,9.14967,9.14967,0,0,1-4.123-.92249,8.95076,8.95076,0,0,1-3.202-2.69532,13.14293,13.14293,0,0,1-2.07646-4.35736,21.81512,21.81512,0,0,1-.73413-5.94614,30.58806,30.58806,0,0,1,.68267-6.9377,14.19376,14.19376,0,0,1,1.92056-4.69869,7.57444,7.57444,0,0,1,2.94609-2.65205,8.51449,8.51449,0,0,1,3.76276-.83025,7.24834,7.24834,0,0,1,3.81282.967,8.14128,8.14128,0,0,1,2.68452,2.69824,12.57112,12.57112,0,0,1,1.57671,4.10132,25.45505,25.45505,0,0,1,.49835,5.235m-4.43725-8.20818a4.32482,4.32482,0,0,0-4.26927-2.8565,5.07934,5.07934,0,0,0-4.55653,2.996q-1.67416,2.9988-1.67548,9.31069L218.0231,42.025a23.18548,23.18548,0,0,0-1.38838-8.15934"/>
      <path d="M258.23888,57.55828a14.62072,14.62072,0,0,1-4.077.554,9.61692,9.61692,0,0,1-3.997-.76132,7.64023,7.64023,0,0,1-2.736-2.00461,8.206,8.206,0,0,1-1.5537-2.78742,10.10011,10.10011,0,0,1-.49974-3.11129,9.08776,9.08776,0,0,1,1.07949-4.566,9.66858,9.66858,0,0,1,2.89312-3.15456,14.5459,14.5459,0,0,1,4.18273-1.983,26.83871,26.83871,0,0,1,4.89231-.99142V36.7711a5.84581,5.84581,0,0,0-1.31514-4.26524,5.44409,5.44409,0,0,0-3.9984-1.31389,10.64608,10.64608,0,0,0-3.47024.50791,12.44971,12.44971,0,0,0-2.31474,1.01583l-.79113-1.8a11.5264,11.5264,0,0,1,2.70906-1.24343,12.34189,12.34189,0,0,1,3.9726-.6q8.04978,0,8.0484,7.60678V56.2688a10.92889,10.92889,0,0,1-3.02459,1.28948m.18418-16.9161a21.81264,21.81264,0,0,0-3.997.87492,11.16406,11.16406,0,0,0-3.21158,1.61459,6.98171,6.98171,0,0,0-2.12777,2.55594,8.40811,8.40811,0,0,0-.764,3.76,8.78146,8.78146,0,0,0,.36977,2.55733,5.78511,5.78511,0,0,0,1.12956,2.11973,5.43931,5.43931,0,0,0,1.895,1.42887,6.16447,6.16447,0,0,0,2.65469.5283,11.14106,11.14106,0,0,0,2.34053-.2276,5.9433,5.9433,0,0,0,1.71071-.59863Z"/>
      <path d="M297.98335,57.65162V36.44739q0-5.43691-4.99676-5.43823a6.80232,6.80232,0,0,0-5.20924,2.44345v24.199h-2.946V36.171a5.07226,5.07226,0,0,0-1.4182-3.7342,5.69837,5.69837,0,0,0-4.20977-1.42761,13.83969,13.83969,0,0,0-2.68188.20722,8.552,8.552,0,0,0-1.89351.623V57.65162h-2.94873V30.91568a12.82014,12.82014,0,0,1,2.97176-1.26646,16.28917,16.28917,0,0,1,4.7095-.577,10.13578,10.13578,0,0,1,4.36693.80861,6.84875,6.84875,0,0,1,2.63166,2.0967,9.14437,9.14437,0,0,1,3.0246-2.0967,9.37866,9.37866,0,0,1,3.86705-.80861,7.95135,7.95135,0,0,1,5.67929,1.89087,7.18827,7.18827,0,0,1,1.9992,5.48428V57.65162Z"/>
      <path d="M345.74765,28.93534a12.1108,12.1108,0,0,1-.71111,4.19354,8.73754,8.73754,0,0,1-2.18214,3.34278,10.31485,10.31485,0,0,1-3.76276,2.212,16.38286,16.38286,0,0,1-5.44488.80584c-.49044,0-.97255-.01346-1.44663-.04744q-.709-.04265-1.28671-.13537V57.653h-3.053V20.31551a10.09229,10.09229,0,0,1,3.053-1.29212,14.97711,14.97711,0,0,1,3.997-.5541,13.7468,13.7468,0,0,1,5.07789.83039,8.65342,8.65342,0,0,1,3.33889,2.26065,8.84914,8.84914,0,0,1,1.842,3.34138,13.89865,13.89865,0,0,1,.57838,4.03363m-3.05026-.02428a15.23653,15.23653,0,0,0-.37115-3.46621,6.57215,6.57215,0,0,0-1.26785-2.6791A5.98663,5.98663,0,0,0,338.6786,21.032a9.65361,9.65361,0,0,0-3.74915-.62581,13.03285,13.03285,0,0,0-2.29991.20722,7.22119,7.22119,0,0,0-1.71612.48766V37.41717a22.78034,22.78034,0,0,0,2.74555.13815,11.98022,11.98022,0,0,0,4.20159-.64884,7.2835,7.2835,0,0,0,2.801-1.8028,6.78343,6.78343,0,0,0,1.55759-2.74817,11.94844,11.94844,0,0,0,.47823-3.44445"/>
      <path d="M370.52378,42.07384c0,.2452-.00819.49709-.0258.75715-.01761.26145-.0258.5161-.0258.76118l-14.83283,1.61458a16.326,16.326,0,0,0,.49572,4.09993,11.74776,11.74776,0,0,0,1.41818,3.39035,7.45793,7.45793,0,0,0,2.23082,2.30392,5.37025,5.37025,0,0,0,2.992.85064,12.62111,12.62111,0,0,0,3.72613-.45923,9.254,9.254,0,0,0,2.36357-1.0591l.89266,1.93415a10.27248,10.27248,0,0,1-2.67785,1.24482,13.62311,13.62311,0,0,1-4.3059.6,9.14593,9.14593,0,0,1-4.123-.92249,8.95743,8.95743,0,0,1-3.20338-2.69532,13.17307,13.17307,0,0,1-2.07646-4.35736,21.87237,21.87237,0,0,1-.73274-5.94614,30.51671,30.51671,0,0,1,.68267-6.9377,14.10616,14.10616,0,0,1,1.9207-4.69869,7.55409,7.55409,0,0,1,2.946-2.65205,8.50071,8.50071,0,0,1,3.76136-.83025,7.25306,7.25306,0,0,1,3.81421.967,8.14305,8.14305,0,0,1,2.68466,2.69824,12.57339,12.57339,0,0,1,1.57519,4.10132,25.45131,25.45131,0,0,1,.49987,5.235m-4.43863-8.20818a4.32325,4.32325,0,0,0-4.268-2.8565,5.073,5.073,0,0,0-4.55514,2.996q-1.67811,2.9988-1.67686,9.31069L367.47338,42.025a23.094,23.094,0,0,0-1.38823-8.15934"/>
      <path d="M388.93781,31.792a9.38269,9.38269,0,0,0-6.10189.0907V57.65162H379.89V30.91568a11.68313,11.68313,0,0,1,3.26287-1.28948,16.67661,16.67661,0,0,1,4.25985-.554c.42123,0,.84925.008,1.28948.02441a8.63972,8.63972,0,0,1,1.18242.11512Z"/>
      <rect x="397.88012" y="18.93254" width="2.94596" height="38.71908"/>
      <path d="M422.94476,57.55828a14.618,14.618,0,0,1-4.07567.554,9.64116,9.64116,0,0,1-3.9984-.76132,7.6529,7.6529,0,0,1-2.7361-2.00461,8.18107,8.18107,0,0,1-1.55218-2.78742,10.09611,10.09611,0,0,1-.49987-3.11129,9.07315,9.07315,0,0,1,1.07824-4.566,9.67406,9.67406,0,0,1,2.89588-3.15456,14.55247,14.55247,0,0,1,4.18121-1.983,26.79256,26.79256,0,0,1,4.89245-.99142V36.7711a5.85128,5.85128,0,0,0-1.31528-4.26524,5.44147,5.44147,0,0,0-3.9984-1.31389,10.65392,10.65392,0,0,0-3.47148.50791,12.42672,12.42672,0,0,0-2.31613,1.01583l-.78975-1.8a11.59306,11.59306,0,0,1,2.71031-1.24343,12.33468,12.33468,0,0,1,3.97135-.6q8.0496,0,8.04826,7.60678V56.2688a10.85579,10.85579,0,0,1-3.02444,1.28948m.18556-16.9161a21.82457,21.82457,0,0,0-3.99576.87492,11.108,11.108,0,0,0-3.21143,1.61459,6.99072,6.99072,0,0,0-2.13069,2.55594,8.44608,8.44608,0,0,0-.76381,3.76,8.77708,8.77708,0,0,0,.36977,2.55733,5.82244,5.82244,0,0,0,1.12956,2.11973,5.45168,5.45168,0,0,0,1.8949,1.42887,6.1699,6.1699,0,0,0,2.65483.5283,11.1555,11.1555,0,0,0,2.34192-.2276,5.928,5.928,0,0,0,1.71071-.59863Z"/>
      <path d="M447.95916,57.49045a8.03842,8.03842,0,0,1-3.41725.62179,7.59843,7.59843,0,0,1-6.893-3.7113q-2.316-3.70594-2.31336-10.80877,0-7.09672,2.31336-10.80865a7.60364,7.60364,0,0,1,6.893-3.71128,8.39528,8.39528,0,0,1,3.36442.6,7.28125,7.28125,0,0,1,2.05342,1.24343L449.013,32.667a6.54572,6.54572,0,0,0-1.71071-.98877,6.3767,6.3767,0,0,0-2.55052-.48627,5.098,5.098,0,0,0-4.788,3.13555q-1.57866,3.13716-1.578,9.17255,0,6.03838,1.63082,9.197a5.12657,5.12657,0,0,0,4.73517,3.1572,6.72317,6.72317,0,0,0,2.55052-.46187,5.444,5.444,0,0,0,1.71071-1.013l.94676,1.88949a8.80473,8.80473,0,0,1-2.00059,1.22165"/>
      <path d="M471.844,57.65162V36.44739a5.85309,5.85309,0,0,0-1.23788-4.14889q-1.23539-1.2901-4.1285-1.28934a8.11146,8.11146,0,0,0-2.7888.46048,10.64175,10.64175,0,0,0-2.05206.96713V57.65162h-2.9447V18.93254h2.9447V30.50111a11.19425,11.19425,0,0,1,2.26329-.967,9.43038,9.43038,0,0,1,2.94595-.46186,8.61156,8.61156,0,0,1,5.86362,1.8218q2.08048,1.82229,2.08048,5.55335V57.65162Z"/>
    </g>
    <g>
      <path d="M24.42148,109.17892a8.59329,8.59329,0,0,1-5.30481-1.41407V85.55548a9.06614,9.06614,0,0,1,5.23438-1.41408c5.30481,0,8.34562,4.56188,8.34562,12.19978C32.69667,103.98044,30.00938,109.17892,24.42148,109.17892ZM24.1384,85.80335a6.58769,6.58769,0,0,0-2.7584.45916v20.61786a7.72256,7.72256,0,0,0,2.79429.45917c4.42034,0,6.15339-4.10136,6.15339-10.99836C30.32768,89.5864,28.24111,85.80335,24.1384,85.80335Z"/>
      <path d="M43.90429,91.42578a4.436,4.436,0,0,0-3.89006.35352v17.0461H37.89244v-18.001c1.62673-.99012,2.688-1.41407,6.64846-1.41407Z"/>
      <path d="M49.77324,108.96627A1.64443,1.64443,0,1,1,51.4,107.30432,1.65292,1.65292,0,0,1,49.77324,108.96627Z"/>
      <path d="M74.5954,109.17892c-4.77385,0-7.56814-5.26892-7.56814-12.51944,0-6.75478,2.8295-12.51808,7.67447-12.51808a5.74535,5.74535,0,0,1,4.102,1.41408l-.6366,1.48586a5.12834,5.12834,0,0,0-3.25346-1.09713c-3.96049,0-5.51678,5.19849-5.51678,10.71527,0,5.44636,1.69783,10.60963,5.48157,10.60963a5.41549,5.41549,0,0,0,3.35978-1.09577l.60139,1.59151A5.77151,5.77151,0,0,1,74.5954,109.17892Z"/>
      <path d="M92.02821,108.8254V94.96232c0-2.58163-1.48586-3.92527-3.395-3.92527a5.5589,5.5589,0,0,0-3.43089,1.02534v16.763H83.08053V81.064h2.12179v9.44206a6.59577,6.59577,0,0,1,3.53654-1.09577c2.971,0,5.41114,1.59151,5.41114,5.552V108.8254Z"/>
      <path d="M105.64071,91.42578a4.436,4.436,0,0,0-3.89006.35352v17.0461H99.62886v-18.001c1.62673-.99012,2.688-1.41407,6.64845-1.41407Z"/>
      <path d="M111.29768,85.73291a1.362,1.362,0,0,1,0-2.72385,1.362,1.362,0,1,1,0,2.72385Zm-1.06123,23.09249V89.76384h2.12179V108.8254Z"/>
      <path d="M121.26867,109.17892a5.78863,5.78863,0,0,1-4.20836-1.41407l.60139-1.73373a4.68237,4.68237,0,0,0,3.46543,1.2732,2.95384,2.95384,0,0,0,3.0767-3.00558c0-2.26333-1.13167-3.11259-2.93516-4.421-1.8387-1.34364-3.85484-3.11123-3.85484-5.69287a4.57937,4.57937,0,0,1,4.56188-4.77453,5.21127,5.21127,0,0,1,3.81963,1.41407l-.60139,1.52108a4.53784,4.53784,0,0,0-3.0767-1.20277,2.712,2.712,0,0,0-2.61685,2.75907c0,2.01546,1.45,3.11123,3.14781,4.34923,1.98024,1.41542,3.819,2.93515,3.819,5.94209A5.09611,5.09611,0,0,1,121.26867,109.17892Z"/>
      <path d="M135.83676,108.93105c-2.12179,0-3.74852-1.37886-3.74852-4.49145V91.21448h-1.73305V89.76384h1.73305V85.23717l2.05136-.88447v5.41114h3.0408v1.45064h-3.0408v13.15469c0,2.12247.88379,2.89994,2.12179,2.89994a4.49481,4.49481,0,0,0,.919-.14087v1.59151A3.57805,3.57805,0,0,1,135.83676,108.93105Z"/>
      <path d="M142.6254,85.73291a1.362,1.362,0,0,1,0-2.72385,1.362,1.362,0,1,1,0,2.72385Zm-1.06123,23.09249V89.76384H143.686V108.8254Z"/>
      <path d="M154.57663,109.17892c-3.9957,0-5.83509-2.369-5.83509-5.58722,0-5.16327,4.34991-6.61391,8.87657-7.17873V95.31584c0-3.11123-1.5204-4.20836-3.607-4.20836a7.00619,7.00619,0,0,0-3.74852,1.20278l-.53095-1.48587a7.89939,7.89939,0,0,1,4.45623-1.41407c2.72318,0,5.41046,1.37886,5.41046,5.90552v12.449A8.72467,8.72467,0,0,1,154.57663,109.17892Zm3.04148-11.28144c-4.38512.67182-6.86043,1.76894-6.86043,5.69422,0,2.75772,1.48519,4.10136,4.03161,4.10136a5.97488,5.97488,0,0,0,2.82882-.63525Z"/>
      <path d="M174.0249,108.8254V94.85667c0-2.54641-1.27321-3.81962-3.53654-3.81962a6.44278,6.44278,0,0,0-3.28935.67182V108.8254h-2.12179v-18.001a10.072,10.072,0,0,1,5.72944-1.41407c2.97037,0,5.34,1.44929,5.34,5.44635V108.8254Z"/>
      <path d="M192.76342,108.8254V84.49492h2.26334v22.56289h6.578v1.76759Z"/>
      <path d="M207.04842,99.98473c.17676,4.77318,2.08658,7.35481,5.057,7.35481a6.44631,6.44631,0,0,0,4.0316-1.23664l.60139,1.66195a7.54294,7.54294,0,0,1-4.66821,1.41407c-3.92595,0-7.03787-2.86472-7.03787-9.9378,0-6.61256,2.72318-9.8308,6.25972-9.8308,3.64219,0,5.97664,2.89994,5.94142,9.33641Zm4.20837-8.80682c-2.33445,0-4.24426,2.5112-4.24426,7.28574l7.99277-1.02534C214.899,93.12294,213.59055,91.17791,211.25679,91.17791Z"/>
      <path d="M227.69879,109.17892c-4.421,0-6.083-4.45623-6.083-9.866,0-5.51679,1.662-9.90259,6.04774-9.90259,4.45556,0,6.08229,4.3858,6.08229,9.90259C233.74586,104.72269,232.08391,109.17892,227.69879,109.17892Zm0-18.28274c-3.25345,0-3.96117,4.41966-3.96117,8.41673,0,3.99571.77815,8.16885,3.96117,8.16885,3.25346,0,3.926-4.17314,3.926-8.16885C231.62475,95.31584,230.95225,90.89618,227.69879,90.89618Z"/>
      <path d="M247.67666,108.8254V94.85667c0-2.54641-1.27321-3.81962-3.53654-3.81962a6.43613,6.43613,0,0,0-3.28867.67182V108.8254H238.729v-18.001a10.07043,10.07043,0,0,1,5.72944-1.41407c2.97037,0,5.33935,1.44929,5.33935,5.44635V108.8254Z"/>
      <path d="M264.22567,108.8254V94.96232c0-2.58163-1.48586-3.92527-3.39568-3.92527a5.55621,5.55621,0,0,0-3.42953,1.02534v16.763H255.278V81.064h2.12247v9.44206a6.59224,6.59224,0,0,1,3.53654-1.09577c2.97037,0,5.40978,1.59151,5.40978,5.552V108.8254Z"/>
      <path d="M277.02413,109.17892c-3.99571,0-5.83509-2.369-5.83509-5.58722,0-5.16327,4.35058-6.61391,8.87725-7.17873V95.31584c0-3.11123-1.52108-4.20836-3.60833-4.20836a7.0077,7.0077,0,0,0-3.74784,1.20278l-.531-1.48587a7.89939,7.89939,0,0,1,4.45623-1.41407c2.7225,0,5.41114,1.37886,5.41114,5.90552v12.449A8.727,8.727,0,0,1,277.02413,109.17892Zm3.04216-11.28144c-4.3858.67182-6.86179,1.76894-6.86179,5.69422,0,2.75772,1.48586,4.10136,4.03228,4.10136a5.98213,5.98213,0,0,0,2.82951-.63525Z"/>
      <path d="M293.53792,91.42578a4.43544,4.43544,0,0,0-3.89006.35352v17.0461H287.5254v-18.001c1.62672-.99012,2.68728-1.41407,6.64913-1.41407Z"/>
      <path d="M304.32227,109.17892c-4.63366,0-6.86043-3.92527-6.86043-9.58428,0-6.43513,3.04081-10.07867,7.14352-10.07867a7.50268,7.50268,0,0,1,2.29855.35352V81.064H309.025v26.70082A7.50932,7.50932,0,0,1,304.32227,109.17892Zm2.58164-17.82357a7.59632,7.59632,0,0,0-2.052-.3183c-3.99571,0-5.26891,4.17314-5.26891,8.31107,0,4.70275,1.37885,8.16886,4.88018,8.16886a4.21581,4.21581,0,0,0,2.44077-.49574Z"/>
      <path d="M319.17277,108.93105c-2.12247,0-3.7492-1.37886-3.7492-4.49145V91.21448H313.6912V89.76384h1.73237V85.23717l2.05068-.88447v5.41114h3.04216v1.45064h-3.04216v13.15469c0,2.12247.88448,2.89994,2.12247,2.89994a4.49406,4.49406,0,0,0,.91969-.14087v1.59151A3.58048,3.58048,0,0,1,319.17277,108.93105Z"/>
      <path d="M347.42446,94.07785v13.687c-.8479.81268-2.68728,1.41407-5.09148,1.41407-4.3858,0-7.4266-2.61685-7.4266-7.00265,0-3.67741,2.50985-5.97595,5.19849-7.1083v-.07043a5.43676,5.43676,0,0,1-3.89006-5.41114,5.13223,5.13223,0,0,1,5.44635-5.445,5.59581,5.59581,0,0,1,4.10136,1.41408l-.67182,1.41407a5.40591,5.40591,0,0,0-3.14781-1.1662c-2.15633,0-3.57176,1.2732-3.57176,3.81962a3.98887,3.98887,0,0,0,4.03228,4.20836c2.79429,0,5.83509-1.52107,7.81534-2.8295l.707,1.62673A18.96759,18.96759,0,0,1,347.42446,94.07785Zm-2.05068.6366c-5.94074,1.6633-8.20407,3.36046-8.20407,7.321,0,3.11259,1.80281,5.552,5.19849,5.552a6.728,6.728,0,0,0,3.00558-.5296Z"/>
      <path d="M375.18178,108.8254l-7.42661-12.766h-.07178v12.766h-2.19155V84.49492h2.19155V95.95245h.07178l7.28439-11.45753h2.22811l-7.46182,11.42231,7.921,12.90817Z"/>
      <path d="M387.09576,109.17892c-4.41966,0-6.0816-4.45623-6.0816-9.866,0-5.51679,1.66194-9.90259,6.04639-9.90259,4.45623,0,6.083,4.3858,6.083,9.90259C393.1435,104.72269,391.48156,109.17892,387.09576,109.17892Zm0-18.28274c-3.25345,0-3.96049,4.41966-3.96049,8.41673,0,3.99571.77882,8.16885,3.96049,8.16885,3.25346,0,3.92663-4.17314,3.92663-8.16885C391.02239,95.31584,390.34922,90.89618,387.09576,90.89618Z"/>
      <path d="M398.3745,108.8254V81.064h2.12111V108.8254Z"/>
      <path d="M406.47157,108.8254V81.064h2.12111V108.8254Z"/>
      <path d="M415.84184,99.98473c.17608,4.77318,2.0859,7.35481,5.05627,7.35481a6.44862,6.44862,0,0,0,4.03228-1.23664l.60139,1.66195a7.54214,7.54214,0,0,1-4.66889,1.41407c-3.92528,0-7.03651-2.86472-7.03651-9.9378,0-6.61256,2.7225-9.8308,6.259-9.8308,3.64219,0,5.976,2.89994,5.94074,9.33641Zm4.20836-8.80682c-2.33376,0-4.24357,2.5112-4.24357,7.28574l7.99141-1.02534C423.6924,93.12294,422.384,91.17791,420.0502,91.17791Z"/>
      <path d="M436.033,116.783a7.37853,7.37853,0,0,1-4.77452-1.41543l.77882-1.59151a6.53173,6.53173,0,0,0,3.74784,1.16756c2.93516,0,4.10272-2.44077,4.10272-5.44636V108.224a5.29347,5.29347,0,0,1-3.21824.9197c-3.81963,0-6.25905-3.67741-6.25905-9.47729,0-5.8703,2.369-10.2561,7.03652-10.2561a6.53574,6.53574,0,0,1,4.52666,1.41407v18.38975C441.97378,113.7408,439.85267,116.783,436.033,116.783Zm3.85486-25.17974a4.99685,4.99685,0,0,0-2.476-.49574c-3.39432,0-4.88018,3.43089-4.88018,8.55894,0,4.5971,1.62672,7.921,4.49144,7.921a4.74138,4.74138,0,0,0,2.86473-.81269Z"/>
      <path d="M448.93851,99.98473c.17608,4.77318,2.08589,7.35481,5.05626,7.35481a6.44862,6.44862,0,0,0,4.03228-1.23664l.60139,1.66195a7.54211,7.54211,0,0,1-4.66889,1.41407c-3.92527,0-7.03651-2.86472-7.03651-9.9378,0-6.61256,2.7225-9.8308,6.259-9.8308,3.64219,0,5.976,2.89994,5.94074,9.33641Zm4.20836-8.80682c-2.33377,0-4.24358,2.5112-4.24358,7.28574l7.99142-1.02534C456.78906,93.12294,455.48063,91.17791,453.14687,91.17791Z"/>
      <path d="M472.948,108.8254V94.85667c0-2.54641-1.27321-3.81962-3.53654-3.81962a6.43615,6.43615,0,0,0-3.28868.67182V108.8254H464.0003v-18.001a10.07043,10.07043,0,0,1,5.72944-1.41407c2.97037,0,5.33935,1.44929,5.33935,5.44635V108.8254Z"/>
    </g>
  </g>
</svg>
